<mxfile host="Electron" modified="2024-02-04T06:42:20.870Z" agent="Mozilla/5.0 (Windows NT 10.0; Win64; x64) AppleWebKit/537.36 (KHTML, like Gecko) draw.io/23.0.2 Chrome/120.0.6099.109 Electron/28.1.0 Safari/537.36" etag="VP0llhQ8CbtF407StaF7" version="23.0.2" type="device">
  <diagram id="6a731a19-8d31-9384-78a2-239565b7b9f0" name="Page-1">
    <mxGraphModel dx="1434" dy="836" grid="0" gridSize="10" guides="1" tooltips="1" connect="1" arrows="1" fold="1" page="1" pageScale="1" pageWidth="850" pageHeight="1100" background="none" math="0" shadow="0">
      <root>
        <mxCell id="0" />
        <mxCell id="1" parent="0" />
        <mxCell id="iwwvHL_2ORkeYpdFA5E3-172" value="" style="strokeColor=#FFFFFF;fillColor=#BAC8D3;fontSize=18;strokeWidth=2;fontFamily=Helvetica;opacity=60;container=0;rounded=1;fontColor=#FFFFFF;" parent="1" vertex="1">
          <mxGeometry x="47" y="242.9338735208771" width="195.42575038543183" height="42.34911392623169" as="geometry" />
        </mxCell>
        <mxCell id="68" value="" style="strokeColor=#FFFFFF;fillColor=#BAC8D3;fontSize=18;strokeWidth=2;fontFamily=Helvetica;opacity=60;container=0;rounded=1;fontColor=#FFFFFF;" parent="1" vertex="1">
          <mxGeometry x="47.504249614568224" y="158.03" width="195.42575038543183" height="42.34911392623169" as="geometry" />
        </mxCell>
        <mxCell id="69" value="" style="strokeColor=#FFFFFF;fillColor=#BAC8D3;fontSize=18;strokeWidth=2;fontFamily=Helvetica;opacity=60;container=0;rounded=1;fontColor=#FFFFFF;" parent="1" vertex="1">
          <mxGeometry x="47.504249614568224" y="200.3791139262317" width="195.42575038543183" height="42.34911392623169" as="geometry" />
        </mxCell>
        <mxCell id="70" value="" style="strokeColor=#FFFFFF;fillColor=#BAC8D3;fontSize=18;strokeWidth=2;fontFamily=Helvetica;opacity=60;container=0;rounded=1;fontColor=#FFFFFF;" parent="1" vertex="1">
          <mxGeometry x="47" y="327.4308860737683" width="195.42575038543183" height="42.34911392623169" as="geometry" />
        </mxCell>
        <mxCell id="iwwvHL_2ORkeYpdFA5E3-166" value="" style="strokeColor=#FFFFFF;fillColor=#BAC8D3;fontSize=18;strokeWidth=2;fontFamily=Helvetica;opacity=60;container=0;rounded=1;fontColor=#FFFFFF;" parent="1" vertex="1">
          <mxGeometry x="47.304650808801625" y="285.0773417786951" width="195.42575038543183" height="42.34911392623169" as="geometry" />
        </mxCell>
        <mxCell id="iwwvHL_2ORkeYpdFA5E3-181" value="" style="strokeColor=#FFFFFF;fillColor=#BAC8D3;fontSize=18;strokeWidth=2;fontFamily=Helvetica;opacity=60;container=0;rounded=1;fontColor=#FFFFFF;" parent="1" vertex="1">
          <mxGeometry x="47.2354012894163" y="369.77216348317256" width="195.6914018572875" height="42.34899872495684" as="geometry" />
        </mxCell>
        <mxCell id="77" value="" style="strokeColor=#FFFFFF;fillColor=#BAC8D3;fontSize=18;strokeWidth=2;fontFamily=Helvetica;opacity=60;container=0;rounded=1;fontColor=#FFFFFF;" parent="1" vertex="1">
          <mxGeometry x="242.42186808176874" y="327.4275951150054" width="195.6914018572875" height="42.34899872495684" as="geometry" />
        </mxCell>
        <mxCell id="iwwvHL_2ORkeYpdFA5E3-207" value="" style="strokeColor=#FFFFFF;fillColor=#BAC8D3;fontSize=18;strokeWidth=2;fontFamily=Helvetica;opacity=60;container=0;rounded=1;fontColor=#FFFFFF;" parent="1" vertex="1">
          <mxGeometry x="242.9268031467038" y="496.8191596580431" width="195.6914018572875" height="42.34899872495684" as="geometry" />
        </mxCell>
        <mxCell id="iwwvHL_2ORkeYpdFA5E3-208" value="" style="strokeColor=#FFFFFF;fillColor=#BAC8D3;fontSize=18;strokeWidth=2;fontFamily=Helvetica;opacity=60;container=0;rounded=1;fontColor=#FFFFFF;" parent="1" vertex="1">
          <mxGeometry x="438.61820500399125" y="496.8191596580431" width="195.6914018572875" height="42.34899872495684" as="geometry" />
        </mxCell>
        <mxCell id="iwwvHL_2ORkeYpdFA5E3-173" value="" style="strokeColor=#FFFFFF;fillColor=#BAC8D3;fontSize=18;strokeWidth=2;fontFamily=Helvetica;opacity=60;container=0;rounded=1;fontColor=#FFFFFF;" parent="1" vertex="1">
          <mxGeometry x="242.42186808176874" y="242.93081241730275" width="195.6914018572875" height="42.34899872495684" as="geometry" />
        </mxCell>
        <mxCell id="iwwvHL_2ORkeYpdFA5E3-347" value="" style="strokeColor=#FFFFFF;fillColor=#BAC8D3;fontSize=18;strokeWidth=2;fontFamily=Helvetica;opacity=60;container=0;rounded=1;fontColor=#FFFFFF;" parent="1" vertex="1">
          <mxGeometry x="634.2077262860851" y="369.77216348317256" width="195.79227371391497" height="42.34899872495684" as="geometry" />
        </mxCell>
        <mxCell id="iwwvHL_2ORkeYpdFA5E3-348" value="" style="strokeColor=#FFFFFF;fillColor=#BAC8D3;fontSize=18;strokeWidth=2;fontFamily=Helvetica;opacity=60;container=0;rounded=1;fontColor=#FFFFFF;" parent="1" vertex="1">
          <mxGeometry x="634.2077262860851" y="412.12116220812936" width="195.6914018572875" height="42.34899872495684" as="geometry" />
        </mxCell>
        <mxCell id="iwwvHL_2ORkeYpdFA5E3-349" value="" style="strokeColor=#FFFFFF;fillColor=#BAC8D3;fontSize=18;strokeWidth=2;fontFamily=Helvetica;opacity=60;container=0;rounded=1;fontColor=#FFFFFF;" parent="1" vertex="1">
          <mxGeometry x="634.2077262860851" y="454.4701609330863" width="195.6914018572875" height="42.34899872495684" as="geometry" />
        </mxCell>
        <mxCell id="iwwvHL_2ORkeYpdFA5E3-354" value="" style="strokeColor=#FFFFFF;fillColor=#BAC8D3;fontSize=18;strokeWidth=2;fontFamily=Helvetica;opacity=60;container=0;rounded=1;fontColor=#FFFFFF;" parent="1" vertex="1">
          <mxGeometry x="634.2077262860851" y="496.8191596580431" width="195.6914018572875" height="42.34899872495684" as="geometry" />
        </mxCell>
        <mxCell id="iwwvHL_2ORkeYpdFA5E3-355" value="" style="strokeColor=#FFFFFF;fillColor=#BAC8D3;fontSize=18;strokeWidth=2;fontFamily=Helvetica;opacity=60;container=0;rounded=1;fontColor=#FFFFFF;" parent="1" vertex="1">
          <mxGeometry x="634.2077262860851" y="539.1681583829999" width="195.6914018572875" height="42.34899872495684" as="geometry" />
        </mxCell>
        <mxCell id="iwwvHL_2ORkeYpdFA5E3-365" value="" style="strokeColor=#FFFFFF;fillColor=#BAC8D3;fontSize=18;strokeWidth=2;fontFamily=Helvetica;opacity=60;container=0;rounded=1;fontColor=#FFFFFF;" parent="1" vertex="1">
          <mxGeometry x="634.2077262860851" y="581.5165849892719" width="195.79227371391497" height="42.34899872495684" as="geometry" />
        </mxCell>
        <mxCell id="iwwvHL_2ORkeYpdFA5E3-366" value="" style="strokeColor=#FFFFFF;fillColor=#BAC8D3;fontSize=18;strokeWidth=2;fontFamily=Helvetica;opacity=60;container=0;rounded=1;fontColor=#FFFFFF;" parent="1" vertex="1">
          <mxGeometry x="634.2077262860851" y="623.8655837142289" width="195.6914018572875" height="42.34899872495684" as="geometry" />
        </mxCell>
        <mxCell id="iwwvHL_2ORkeYpdFA5E3-367" value="" style="strokeColor=#FFFFFF;fillColor=#BAC8D3;fontSize=18;strokeWidth=2;fontFamily=Helvetica;opacity=60;container=0;rounded=1;fontColor=#FFFFFF;" parent="1" vertex="1">
          <mxGeometry x="634.2077262860851" y="666.2145824391856" width="195.6914018572875" height="42.34899872495684" as="geometry" />
        </mxCell>
        <mxCell id="iwwvHL_2ORkeYpdFA5E3-372" value="" style="strokeColor=#FFFFFF;fillColor=#BAC8D3;fontSize=18;strokeWidth=2;fontFamily=Helvetica;opacity=60;container=0;rounded=1;fontColor=#FFFFFF;" parent="1" vertex="1">
          <mxGeometry x="634.2077262860851" y="708.5635811641426" width="195.6914018572875" height="42.34899872495684" as="geometry" />
        </mxCell>
        <mxCell id="iwwvHL_2ORkeYpdFA5E3-373" value="" style="strokeColor=#FFFFFF;fillColor=#BAC8D3;fontSize=18;strokeWidth=2;fontFamily=Helvetica;opacity=60;container=0;rounded=1;fontColor=#FFFFFF;" parent="1" vertex="1">
          <mxGeometry x="634.2077262860851" y="750.9125798890994" width="195.6914018572875" height="42.34899872495684" as="geometry" />
        </mxCell>
        <mxCell id="iwwvHL_2ORkeYpdFA5E3-374" value="" style="strokeColor=#FFFFFF;fillColor=#BAC8D3;fontSize=18;strokeWidth=2;fontFamily=Helvetica;opacity=60;container=0;rounded=1;fontColor=#FFFFFF;" parent="1" vertex="1">
          <mxGeometry x="634.2077262860851" y="793.0498336204314" width="195.79227371391497" height="42.34899872495684" as="geometry" />
        </mxCell>
        <mxCell id="iwwvHL_2ORkeYpdFA5E3-375" value="" style="strokeColor=#FFFFFF;fillColor=#BAC8D3;fontSize=18;strokeWidth=2;fontFamily=Helvetica;opacity=60;container=0;rounded=1;fontColor=#FFFFFF;" parent="1" vertex="1">
          <mxGeometry x="634.2077262860851" y="835.3988323453883" width="195.6914018572875" height="42.34899872495684" as="geometry" />
        </mxCell>
        <mxCell id="iwwvHL_2ORkeYpdFA5E3-376" value="" style="strokeColor=#FFFFFF;fillColor=#BAC8D3;fontSize=18;strokeWidth=2;fontFamily=Helvetica;opacity=60;container=0;rounded=1;fontColor=#FFFFFF;" parent="1" vertex="1">
          <mxGeometry x="634.2077262860851" y="877.7478310703451" width="195.6914018572875" height="42.34899872495684" as="geometry" />
        </mxCell>
        <mxCell id="iwwvHL_2ORkeYpdFA5E3-381" value="" style="strokeColor=#FFFFFF;fillColor=#BAC8D3;fontSize=18;strokeWidth=2;fontFamily=Helvetica;opacity=60;container=0;rounded=1;fontColor=#FFFFFF;" parent="1" vertex="1">
          <mxGeometry x="634.2077262860851" y="920.096829795302" width="195.6914018572875" height="42.34899872495684" as="geometry" />
        </mxCell>
        <mxCell id="iwwvHL_2ORkeYpdFA5E3-382" value="" style="strokeColor=#FFFFFF;fillColor=#BAC8D3;fontSize=18;strokeWidth=2;fontFamily=Helvetica;opacity=60;container=0;rounded=1;fontColor=#FFFFFF;" parent="1" vertex="1">
          <mxGeometry x="634.2077262860851" y="962.4458285202589" width="195.6914018572875" height="42.34899872495684" as="geometry" />
        </mxCell>
        <mxCell id="iwwvHL_2ORkeYpdFA5E3-182" value="" style="strokeColor=#FFFFFF;fillColor=#BAC8D3;fontSize=18;strokeWidth=2;fontFamily=Helvetica;opacity=60;container=0;rounded=1;fontColor=#FFFFFF;" parent="1" vertex="1">
          <mxGeometry x="47.2354012894163" y="412.12116220812936" width="195.6914018572875" height="42.34899872495684" as="geometry" />
        </mxCell>
        <mxCell id="iwwvHL_2ORkeYpdFA5E3-183" value="" style="strokeColor=#FFFFFF;fillColor=#BAC8D3;fontSize=18;strokeWidth=2;fontFamily=Helvetica;opacity=60;container=0;rounded=1;fontColor=#FFFFFF;" parent="1" vertex="1">
          <mxGeometry x="47.2354012894163" y="454.4701609330863" width="195.6914018572875" height="42.34899872495684" as="geometry" />
        </mxCell>
        <mxCell id="iwwvHL_2ORkeYpdFA5E3-184" value="" style="strokeColor=#FFFFFF;fillColor=#BAC8D3;fontSize=18;strokeWidth=2;fontFamily=Helvetica;opacity=60;container=0;rounded=1;fontColor=#FFFFFF;" parent="1" vertex="1">
          <mxGeometry x="242.9268031467038" y="369.77216348317256" width="195.79227371391497" height="42.34899872495684" as="geometry" />
        </mxCell>
        <mxCell id="iwwvHL_2ORkeYpdFA5E3-185" value="" style="strokeColor=#FFFFFF;fillColor=#BAC8D3;fontSize=18;strokeWidth=2;fontFamily=Helvetica;opacity=60;container=0;rounded=1;fontColor=#FFFFFF;" parent="1" vertex="1">
          <mxGeometry x="242.9268031467038" y="412.12116220812936" width="195.6914018572875" height="42.34899872495684" as="geometry" />
        </mxCell>
        <mxCell id="iwwvHL_2ORkeYpdFA5E3-186" value="" style="strokeColor=#FFFFFF;fillColor=#BAC8D3;fontSize=18;strokeWidth=2;fontFamily=Helvetica;opacity=60;container=0;rounded=1;fontColor=#FFFFFF;" parent="1" vertex="1">
          <mxGeometry x="242.9268031467038" y="454.4701609330863" width="195.6914018572875" height="42.34899872495684" as="geometry" />
        </mxCell>
        <mxCell id="iwwvHL_2ORkeYpdFA5E3-187" value="" style="strokeColor=#FFFFFF;fillColor=#BAC8D3;fontSize=18;strokeWidth=2;fontFamily=Helvetica;opacity=60;container=0;rounded=1;fontColor=#FFFFFF;" parent="1" vertex="1">
          <mxGeometry x="438.61820500399125" y="369.77216348317256" width="195.79227371391497" height="42.34899872495684" as="geometry" />
        </mxCell>
        <mxCell id="iwwvHL_2ORkeYpdFA5E3-188" value="" style="strokeColor=#FFFFFF;fillColor=#BAC8D3;fontSize=18;strokeWidth=2;fontFamily=Helvetica;opacity=60;container=0;rounded=1;fontColor=#FFFFFF;" parent="1" vertex="1">
          <mxGeometry x="438.61820500399125" y="412.12116220812936" width="195.6914018572875" height="42.34899872495684" as="geometry" />
        </mxCell>
        <mxCell id="iwwvHL_2ORkeYpdFA5E3-189" value="" style="strokeColor=#FFFFFF;fillColor=#BAC8D3;fontSize=18;strokeWidth=2;fontFamily=Helvetica;opacity=60;container=0;rounded=1;fontColor=#FFFFFF;" parent="1" vertex="1">
          <mxGeometry x="438.61820500399125" y="454.4701609330863" width="195.6914018572875" height="42.34899872495684" as="geometry" />
        </mxCell>
        <mxCell id="iwwvHL_2ORkeYpdFA5E3-206" value="" style="strokeColor=#FFFFFF;fillColor=#BAC8D3;fontSize=18;strokeWidth=2;fontFamily=Helvetica;opacity=60;container=0;rounded=1;fontColor=#FFFFFF;" parent="1" vertex="1">
          <mxGeometry x="47.2354012894163" y="496.8191596580431" width="195.6914018572875" height="42.34899872495684" as="geometry" />
        </mxCell>
        <mxCell id="iwwvHL_2ORkeYpdFA5E3-384" value="" style="strokeColor=#FFFFFF;fillColor=#BAC8D3;fontSize=18;strokeWidth=2;fontFamily=Helvetica;opacity=60;container=0;rounded=1;fontColor=#FFFFFF;" parent="1" vertex="1">
          <mxGeometry x="47.035531159546174" y="539.1648722635796" width="195.6914018572875" height="42.34899872495684" as="geometry" />
        </mxCell>
        <mxCell id="iwwvHL_2ORkeYpdFA5E3-385" value="" style="strokeColor=#FFFFFF;fillColor=#BAC8D3;fontSize=18;strokeWidth=2;fontFamily=Helvetica;opacity=60;container=0;rounded=1;fontColor=#FFFFFF;" parent="1" vertex="1">
          <mxGeometry x="47.035531159546174" y="581.5138709885365" width="195.6914018572875" height="42.34899872495684" as="geometry" />
        </mxCell>
        <mxCell id="iwwvHL_2ORkeYpdFA5E3-386" value="" style="strokeColor=#FFFFFF;fillColor=#BAC8D3;fontSize=18;strokeWidth=2;fontFamily=Helvetica;opacity=60;container=0;rounded=1;fontColor=#FFFFFF;" parent="1" vertex="1">
          <mxGeometry x="242.72693301683367" y="539.1648722635796" width="195.6914018572875" height="42.34899872495684" as="geometry" />
        </mxCell>
        <mxCell id="iwwvHL_2ORkeYpdFA5E3-387" value="" style="strokeColor=#FFFFFF;fillColor=#BAC8D3;fontSize=18;strokeWidth=2;fontFamily=Helvetica;opacity=60;container=0;rounded=1;fontColor=#FFFFFF;" parent="1" vertex="1">
          <mxGeometry x="242.72693301683367" y="581.5138709885365" width="195.6914018572875" height="42.34899872495684" as="geometry" />
        </mxCell>
        <mxCell id="iwwvHL_2ORkeYpdFA5E3-388" value="" style="strokeColor=#FFFFFF;fillColor=#BAC8D3;fontSize=18;strokeWidth=2;fontFamily=Helvetica;opacity=60;container=0;rounded=1;fontColor=#FFFFFF;" parent="1" vertex="1">
          <mxGeometry x="438.4183348741211" y="539.1648722635796" width="195.6914018572875" height="42.34899872495684" as="geometry" />
        </mxCell>
        <mxCell id="iwwvHL_2ORkeYpdFA5E3-389" value="" style="strokeColor=#FFFFFF;fillColor=#BAC8D3;fontSize=18;strokeWidth=2;fontFamily=Helvetica;opacity=60;container=0;rounded=1;fontColor=#FFFFFF;" parent="1" vertex="1">
          <mxGeometry x="438.4183348741211" y="581.5138709885365" width="195.6914018572875" height="42.34899872495684" as="geometry" />
        </mxCell>
        <mxCell id="iwwvHL_2ORkeYpdFA5E3-390" value="" style="strokeColor=#FFFFFF;fillColor=#BAC8D3;fontSize=18;strokeWidth=2;fontFamily=Helvetica;opacity=60;container=0;rounded=1;fontColor=#FFFFFF;" parent="1" vertex="1">
          <mxGeometry x="47.035531159546174" y="623.8628697134934" width="195.6914018572875" height="42.34899872495684" as="geometry" />
        </mxCell>
        <mxCell id="iwwvHL_2ORkeYpdFA5E3-391" value="" style="strokeColor=#FFFFFF;fillColor=#BAC8D3;fontSize=18;strokeWidth=2;fontFamily=Helvetica;opacity=60;container=0;rounded=1;fontColor=#FFFFFF;" parent="1" vertex="1">
          <mxGeometry x="242.72693301683367" y="623.8628697134934" width="195.6914018572875" height="42.34899872495684" as="geometry" />
        </mxCell>
        <mxCell id="iwwvHL_2ORkeYpdFA5E3-392" value="" style="strokeColor=#FFFFFF;fillColor=#BAC8D3;fontSize=18;strokeWidth=2;fontFamily=Helvetica;opacity=60;container=0;rounded=1;fontColor=#FFFFFF;" parent="1" vertex="1">
          <mxGeometry x="438.4183348741211" y="623.8628697134934" width="195.6914018572875" height="42.34899872495684" as="geometry" />
        </mxCell>
        <mxCell id="iwwvHL_2ORkeYpdFA5E3-393" value="" style="strokeColor=#FFFFFF;fillColor=#BAC8D3;fontSize=18;strokeWidth=2;fontFamily=Helvetica;opacity=60;container=0;rounded=1;fontColor=#FFFFFF;" parent="1" vertex="1">
          <mxGeometry x="47.035531159546174" y="666.2118684384502" width="195.6914018572875" height="42.34899872495684" as="geometry" />
        </mxCell>
        <mxCell id="iwwvHL_2ORkeYpdFA5E3-394" value="" style="strokeColor=#FFFFFF;fillColor=#BAC8D3;fontSize=18;strokeWidth=2;fontFamily=Helvetica;opacity=60;container=0;rounded=1;fontColor=#FFFFFF;" parent="1" vertex="1">
          <mxGeometry x="242.72693301683367" y="666.2118684384502" width="195.6914018572875" height="42.34899872495684" as="geometry" />
        </mxCell>
        <mxCell id="iwwvHL_2ORkeYpdFA5E3-395" value="" style="strokeColor=#FFFFFF;fillColor=#BAC8D3;fontSize=18;strokeWidth=2;fontFamily=Helvetica;opacity=60;container=0;rounded=1;fontColor=#FFFFFF;" parent="1" vertex="1">
          <mxGeometry x="438.4183348741211" y="666.2118684384502" width="195.6914018572875" height="42.34899872495684" as="geometry" />
        </mxCell>
        <mxCell id="iwwvHL_2ORkeYpdFA5E3-396" value="" style="strokeColor=#FFFFFF;fillColor=#BAC8D3;fontSize=18;strokeWidth=2;fontFamily=Helvetica;opacity=60;container=0;rounded=1;fontColor=#FFFFFF;" parent="1" vertex="1">
          <mxGeometry x="47.035531159546174" y="708.5608671634069" width="195.6914018572875" height="42.34899872495684" as="geometry" />
        </mxCell>
        <mxCell id="iwwvHL_2ORkeYpdFA5E3-397" value="" style="strokeColor=#FFFFFF;fillColor=#BAC8D3;fontSize=18;strokeWidth=2;fontFamily=Helvetica;opacity=60;container=0;rounded=1;fontColor=#FFFFFF;" parent="1" vertex="1">
          <mxGeometry x="47.035531159546174" y="750.9098658883638" width="195.6914018572875" height="42.34899872495684" as="geometry" />
        </mxCell>
        <mxCell id="iwwvHL_2ORkeYpdFA5E3-398" value="" style="strokeColor=#FFFFFF;fillColor=#BAC8D3;fontSize=18;strokeWidth=2;fontFamily=Helvetica;opacity=60;container=0;rounded=1;fontColor=#FFFFFF;" parent="1" vertex="1">
          <mxGeometry x="47.035531159546174" y="793.2588646133207" width="195.6914018572875" height="42.34899872495684" as="geometry" />
        </mxCell>
        <mxCell id="iwwvHL_2ORkeYpdFA5E3-399" value="" style="strokeColor=#FFFFFF;fillColor=#BAC8D3;fontSize=18;strokeWidth=2;fontFamily=Helvetica;opacity=60;container=0;rounded=1;fontColor=#FFFFFF;" parent="1" vertex="1">
          <mxGeometry x="242.72693301683367" y="708.5608671634069" width="195.79227371391497" height="42.34899872495684" as="geometry" />
        </mxCell>
        <mxCell id="iwwvHL_2ORkeYpdFA5E3-400" value="" style="strokeColor=#FFFFFF;fillColor=#BAC8D3;fontSize=18;strokeWidth=2;fontFamily=Helvetica;opacity=60;container=0;rounded=1;fontColor=#FFFFFF;" parent="1" vertex="1">
          <mxGeometry x="242.72693301683367" y="750.9098658883638" width="195.6914018572875" height="42.34899872495684" as="geometry" />
        </mxCell>
        <mxCell id="iwwvHL_2ORkeYpdFA5E3-401" value="" style="strokeColor=#FFFFFF;fillColor=#BAC8D3;fontSize=18;strokeWidth=2;fontFamily=Helvetica;opacity=60;container=0;rounded=1;fontColor=#FFFFFF;" parent="1" vertex="1">
          <mxGeometry x="242.72693301683367" y="793.2588646133207" width="195.6914018572875" height="42.34899872495684" as="geometry" />
        </mxCell>
        <mxCell id="iwwvHL_2ORkeYpdFA5E3-402" value="" style="strokeColor=#FFFFFF;fillColor=#BAC8D3;fontSize=18;strokeWidth=2;fontFamily=Helvetica;opacity=60;container=0;rounded=1;fontColor=#FFFFFF;" parent="1" vertex="1">
          <mxGeometry x="438.4183348741211" y="708.5608671634069" width="195.79227371391497" height="42.34899872495684" as="geometry" />
        </mxCell>
        <mxCell id="iwwvHL_2ORkeYpdFA5E3-403" value="" style="strokeColor=#FFFFFF;fillColor=#BAC8D3;fontSize=18;strokeWidth=2;fontFamily=Helvetica;opacity=60;container=0;rounded=1;fontColor=#FFFFFF;" parent="1" vertex="1">
          <mxGeometry x="438.4183348741211" y="750.9098658883638" width="195.6914018572875" height="42.34899872495684" as="geometry" />
        </mxCell>
        <mxCell id="iwwvHL_2ORkeYpdFA5E3-404" value="" style="strokeColor=#FFFFFF;fillColor=#BAC8D3;fontSize=18;strokeWidth=2;fontFamily=Helvetica;opacity=60;container=0;rounded=1;fontColor=#FFFFFF;" parent="1" vertex="1">
          <mxGeometry x="438.4183348741211" y="793.2588646133207" width="195.6914018572875" height="42.34899872495684" as="geometry" />
        </mxCell>
        <mxCell id="iwwvHL_2ORkeYpdFA5E3-405" value="" style="strokeColor=#FFFFFF;fillColor=#BAC8D3;fontSize=18;strokeWidth=2;fontFamily=Helvetica;opacity=60;container=0;rounded=1;fontColor=#FFFFFF;" parent="1" vertex="1">
          <mxGeometry x="47.035531159546174" y="835.6078633382776" width="195.6914018572875" height="42.34899872495684" as="geometry" />
        </mxCell>
        <mxCell id="iwwvHL_2ORkeYpdFA5E3-406" value="" style="strokeColor=#FFFFFF;fillColor=#BAC8D3;fontSize=18;strokeWidth=2;fontFamily=Helvetica;opacity=60;container=0;rounded=1;fontColor=#FFFFFF;" parent="1" vertex="1">
          <mxGeometry x="242.72693301683367" y="835.6078633382776" width="195.6914018572875" height="42.34899872495684" as="geometry" />
        </mxCell>
        <mxCell id="iwwvHL_2ORkeYpdFA5E3-407" value="" style="strokeColor=#FFFFFF;fillColor=#BAC8D3;fontSize=18;strokeWidth=2;fontFamily=Helvetica;opacity=60;container=0;rounded=1;fontColor=#FFFFFF;" parent="1" vertex="1">
          <mxGeometry x="438.4183348741211" y="835.6078633382776" width="195.6914018572875" height="42.34899872495684" as="geometry" />
        </mxCell>
        <mxCell id="iwwvHL_2ORkeYpdFA5E3-408" value="" style="strokeColor=#FFFFFF;fillColor=#BAC8D3;fontSize=18;strokeWidth=2;fontFamily=Helvetica;opacity=60;container=0;rounded=1;fontColor=#FFFFFF;" parent="1" vertex="1">
          <mxGeometry x="47.035531159546174" y="877.9530038251294" width="195.6914018572875" height="42.34899872495684" as="geometry" />
        </mxCell>
        <mxCell id="iwwvHL_2ORkeYpdFA5E3-409" value="" style="strokeColor=#FFFFFF;fillColor=#BAC8D3;fontSize=18;strokeWidth=2;fontFamily=Helvetica;opacity=60;container=0;rounded=1;fontColor=#FFFFFF;" parent="1" vertex="1">
          <mxGeometry x="47.035531159546174" y="920.3020025500863" width="195.6914018572875" height="42.34899872495684" as="geometry" />
        </mxCell>
        <mxCell id="iwwvHL_2ORkeYpdFA5E3-410" value="" style="strokeColor=#FFFFFF;fillColor=#BAC8D3;fontSize=18;strokeWidth=2;fontFamily=Helvetica;opacity=60;container=0;rounded=1;fontColor=#FFFFFF;" parent="1" vertex="1">
          <mxGeometry x="242.72693301683367" y="877.9530038251294" width="195.6914018572875" height="42.34899872495684" as="geometry" />
        </mxCell>
        <mxCell id="iwwvHL_2ORkeYpdFA5E3-411" value="" style="strokeColor=#FFFFFF;fillColor=#BAC8D3;fontSize=18;strokeWidth=2;fontFamily=Helvetica;opacity=60;container=0;rounded=1;fontColor=#FFFFFF;" parent="1" vertex="1">
          <mxGeometry x="242.72693301683367" y="920.3020025500863" width="195.6914018572875" height="42.34899872495684" as="geometry" />
        </mxCell>
        <mxCell id="iwwvHL_2ORkeYpdFA5E3-412" value="" style="strokeColor=#FFFFFF;fillColor=#BAC8D3;fontSize=18;strokeWidth=2;fontFamily=Helvetica;opacity=60;container=0;rounded=1;fontColor=#FFFFFF;" parent="1" vertex="1">
          <mxGeometry x="438.4183348741211" y="877.9530038251294" width="195.6914018572875" height="42.34899872495684" as="geometry" />
        </mxCell>
        <mxCell id="iwwvHL_2ORkeYpdFA5E3-413" value="" style="strokeColor=#FFFFFF;fillColor=#BAC8D3;fontSize=18;strokeWidth=2;fontFamily=Helvetica;opacity=60;container=0;rounded=1;fontColor=#FFFFFF;" parent="1" vertex="1">
          <mxGeometry x="438.4183348741211" y="920.3020025500863" width="195.6914018572875" height="42.34899872495684" as="geometry" />
        </mxCell>
        <mxCell id="iwwvHL_2ORkeYpdFA5E3-414" value="" style="strokeColor=#FFFFFF;fillColor=#BAC8D3;fontSize=18;strokeWidth=2;fontFamily=Helvetica;opacity=60;container=0;rounded=1;fontColor=#FFFFFF;" parent="1" vertex="1">
          <mxGeometry x="47.035531159546174" y="962.6510012750432" width="195.6914018572875" height="42.34899872495684" as="geometry" />
        </mxCell>
        <mxCell id="iwwvHL_2ORkeYpdFA5E3-415" value="" style="strokeColor=#FFFFFF;fillColor=#BAC8D3;fontSize=18;strokeWidth=2;fontFamily=Helvetica;opacity=60;container=0;rounded=1;fontColor=#FFFFFF;" parent="1" vertex="1">
          <mxGeometry x="242.72693301683367" y="962.6510012750432" width="195.6914018572875" height="42.34899872495684" as="geometry" />
        </mxCell>
        <mxCell id="iwwvHL_2ORkeYpdFA5E3-416" value="" style="strokeColor=#FFFFFF;fillColor=#BAC8D3;fontSize=18;strokeWidth=2;fontFamily=Helvetica;opacity=60;container=0;rounded=1;fontColor=#FFFFFF;" parent="1" vertex="1">
          <mxGeometry x="438.4183348741211" y="962.6510012750432" width="195.6914018572875" height="42.34899872495684" as="geometry" />
        </mxCell>
        <mxCell id="iwwvHL_2ORkeYpdFA5E3-337" value="" style="strokeColor=#FFFFFF;fillColor=#BAC8D3;fontSize=18;strokeWidth=2;fontFamily=Helvetica;opacity=60;container=0;rounded=1;fontColor=#FFFFFF;" parent="1" vertex="1">
          <mxGeometry x="634.2077262860851" y="158.0271698583883" width="195.79227371391497" height="42.34899872495684" as="geometry" />
        </mxCell>
        <mxCell id="iwwvHL_2ORkeYpdFA5E3-338" value="" style="strokeColor=#FFFFFF;fillColor=#BAC8D3;fontSize=18;strokeWidth=2;fontFamily=Helvetica;opacity=60;container=0;rounded=1;fontColor=#FFFFFF;" parent="1" vertex="1">
          <mxGeometry x="634.2077262860851" y="200.37616858334516" width="195.6914018572875" height="42.34899872495684" as="geometry" />
        </mxCell>
        <mxCell id="iwwvHL_2ORkeYpdFA5E3-339" value="" style="strokeColor=#FFFFFF;fillColor=#BAC8D3;fontSize=18;strokeWidth=2;fontFamily=Helvetica;opacity=60;container=0;rounded=1;fontColor=#FFFFFF;" parent="1" vertex="1">
          <mxGeometry x="634.2077262860851" y="242.725167308302" width="195.6914018572875" height="42.34899872495684" as="geometry" />
        </mxCell>
        <mxCell id="iwwvHL_2ORkeYpdFA5E3-345" value="" style="strokeColor=#FFFFFF;fillColor=#BAC8D3;fontSize=18;strokeWidth=2;fontFamily=Helvetica;opacity=60;container=0;rounded=1;fontColor=#FFFFFF;" parent="1" vertex="1">
          <mxGeometry x="634.2077262860851" y="285.07416603325885" width="195.6914018572875" height="42.34899872495684" as="geometry" />
        </mxCell>
        <mxCell id="iwwvHL_2ORkeYpdFA5E3-346" value="" style="strokeColor=#FFFFFF;fillColor=#BAC8D3;fontSize=18;strokeWidth=2;fontFamily=Helvetica;opacity=60;container=0;rounded=1;fontColor=#FFFFFF;" parent="1" vertex="1">
          <mxGeometry x="634.2077262860851" y="327.4231647582157" width="195.6914018572875" height="42.34899872495684" as="geometry" />
        </mxCell>
        <mxCell id="57" value="Major Features" style="strokeColor=#82b366;fillColor=#d5e8d4;fontSize=10;strokeWidth=2;horizontal=0;fontFamily=Helvetica;fontStyle=0;container=0;rounded=1;" parent="1" vertex="1">
          <mxGeometry x="20" y="158.0271698583883" width="15.130778494120168" height="211.5332486311594" as="geometry" />
        </mxCell>
        <mxCell id="58" value="Class Sys" style="strokeColor=#82b366;fillColor=#d5e8d4;fontSize=8;strokeWidth=2;horizontal=0;fontFamily=Helvetica;labelBackgroundColor=none;container=0;rounded=1;" parent="1" vertex="1">
          <mxGeometry x="35.13077849412017" y="158.0271698583883" width="12.104622795296134" height="42.34899872495684" as="geometry" />
        </mxCell>
        <mxCell id="60" value="Skill Sys" style="strokeColor=#82b366;fillColor=#d5e8d4;fontSize=8;strokeWidth=2;horizontal=0;fontFamily=Helvetica;labelBackgroundColor=none;container=0;rounded=1;" parent="1" vertex="1">
          <mxGeometry x="35.13077849412017" y="200.37616858334516" width="12.104622795296134" height="42.34899872495684" as="geometry" />
        </mxCell>
        <mxCell id="61" value="Quest Sys" style="strokeColor=#82b366;fillColor=#d5e8d4;fontSize=8;strokeWidth=2;horizontal=0;fontFamily=Helvetica;labelBackgroundColor=none;container=0;rounded=1;" parent="1" vertex="1">
          <mxGeometry x="34.6258434291851" y="327.4275951150054" width="12.104622795296134" height="42.34899872495684" as="geometry" />
        </mxCell>
        <mxCell id="75" value="" style="strokeColor=#FFFFFF;fillColor=#BAC8D3;fontSize=18;strokeWidth=2;fontFamily=Helvetica;opacity=60;container=0;rounded=1;fontColor=#FFFFFF;" parent="1" vertex="1">
          <mxGeometry x="242.9268031467038" y="158.0271698583883" width="195.79227371391497" height="42.34899872495684" as="geometry" />
        </mxCell>
        <mxCell id="76" value="" style="strokeColor=#FFFFFF;fillColor=#BAC8D3;fontSize=18;strokeWidth=2;fontFamily=Helvetica;opacity=60;container=0;rounded=1;fontColor=#FFFFFF;" parent="1" vertex="1">
          <mxGeometry x="242.9268031467038" y="200.37616858334516" width="195.6914018572875" height="42.34899872495684" as="geometry" />
        </mxCell>
        <mxCell id="82" value="" style="strokeColor=#FFFFFF;fillColor=#BAC8D3;fontSize=18;strokeWidth=2;fontFamily=Helvetica;opacity=60;container=0;rounded=1;fontColor=#FFFFFF;" parent="1" vertex="1">
          <mxGeometry x="438.61820500399125" y="158.0271698583883" width="195.79227371391497" height="42.34899872495684" as="geometry" />
        </mxCell>
        <mxCell id="83" value="" style="strokeColor=#FFFFFF;fillColor=#BAC8D3;fontSize=18;strokeWidth=2;fontFamily=Helvetica;opacity=60;container=0;rounded=1;fontColor=#FFFFFF;" parent="1" vertex="1">
          <mxGeometry x="438.61820500399125" y="200.37616858334516" width="195.6914018572875" height="42.34899872495684" as="geometry" />
        </mxCell>
        <mxCell id="84" value="" style="strokeColor=#FFFFFF;fillColor=#BAC8D3;fontSize=18;strokeWidth=2;fontFamily=Helvetica;opacity=60;container=0;rounded=1;fontColor=#FFFFFF;" parent="1" vertex="1">
          <mxGeometry x="438.61820500399125" y="242.725167308302" width="195.6914018572875" height="42.34899872495684" as="geometry" />
        </mxCell>
        <mxCell id="90" value="Base Framework" style="rounded=1;fillColor=#d5e8d4;strokeColor=#82b366;strokeWidth=2;fontFamily=Helvetica;container=0;" parent="1" vertex="1">
          <mxGeometry x="60.92077922077923" y="164.89210746847772" width="168.31168831168833" height="28.61227844065724" as="geometry" />
        </mxCell>
        <mxCell id="iwwvHL_2ORkeYpdFA5E3-165" value="Crafting" style="strokeColor=#82b366;fillColor=#d5e8d4;fontSize=8;strokeWidth=2;horizontal=0;fontFamily=Helvetica;labelBackgroundColor=none;container=0;rounded=1;" parent="1" vertex="1">
          <mxGeometry x="34.930908364250044" y="285.07416603325885" width="12.104622795296134" height="42.34899872495684" as="geometry" />
        </mxCell>
        <mxCell id="iwwvHL_2ORkeYpdFA5E3-167" value="" style="strokeColor=#FFFFFF;fillColor=#BAC8D3;fontSize=18;strokeWidth=2;fontFamily=Helvetica;opacity=60;container=0;rounded=1;fontColor=#FFFFFF;" parent="1" vertex="1">
          <mxGeometry x="242.72693301683367" y="285.07416603325885" width="195.6914018572875" height="42.34899872495684" as="geometry" />
        </mxCell>
        <mxCell id="iwwvHL_2ORkeYpdFA5E3-168" value="" style="strokeColor=#FFFFFF;fillColor=#BAC8D3;fontSize=18;strokeWidth=2;fontFamily=Helvetica;opacity=60;container=0;rounded=1;fontColor=#FFFFFF;" parent="1" vertex="1">
          <mxGeometry x="438.61820500399125" y="285.07416603325885" width="195.6914018572875" height="42.34899872495684" as="geometry" />
        </mxCell>
        <mxCell id="iwwvHL_2ORkeYpdFA5E3-171" value="Char Prog" style="strokeColor=#82b366;fillColor=#d5e8d4;fontSize=8;strokeWidth=2;horizontal=0;fontFamily=Helvetica;labelBackgroundColor=none;container=0;rounded=1;" parent="1" vertex="1">
          <mxGeometry x="34.62584342918511" y="242.93081241730275" width="12.104622795296134" height="42.34899872495684" as="geometry" />
        </mxCell>
        <mxCell id="iwwvHL_2ORkeYpdFA5E3-174" value="" style="strokeColor=#FFFFFF;fillColor=#BAC8D3;fontSize=18;strokeWidth=2;fontFamily=Helvetica;opacity=60;container=0;rounded=1;fontColor=#FFFFFF;" parent="1" vertex="1">
          <mxGeometry x="438.61820500399125" y="327.4231647582157" width="195.6914018572875" height="42.34899872495684" as="geometry" />
        </mxCell>
        <mxCell id="iwwvHL_2ORkeYpdFA5E3-177" value="Content Development" style="strokeColor=#b46504;fillColor=#fad7ac;fontSize=10;strokeWidth=2;horizontal=0;fontFamily=Helvetica;fontStyle=0;container=0;rounded=1;" parent="1" vertex="1">
          <mxGeometry x="20" y="369.77216348317256" width="15.130778494120168" height="211.5332486311594" as="geometry" />
        </mxCell>
        <mxCell id="iwwvHL_2ORkeYpdFA5E3-178" value="Quests" style="strokeColor=#b46504;fillColor=#fad7ac;fontSize=8;strokeWidth=2;horizontal=0;fontFamily=Helvetica;labelBackgroundColor=none;container=0;rounded=1;" parent="1" vertex="1">
          <mxGeometry x="35.13077849412017" y="369.77216348317256" width="12.104622795296134" height="42.34899872495684" as="geometry" />
        </mxCell>
        <mxCell id="iwwvHL_2ORkeYpdFA5E3-179" value="Items" style="strokeColor=#b46504;fillColor=#fad7ac;fontSize=8;strokeWidth=2;horizontal=0;fontFamily=Helvetica;labelBackgroundColor=none;container=0;rounded=1;" parent="1" vertex="1">
          <mxGeometry x="35.13077849412017" y="412.12116220812936" width="12.104622795296134" height="42.34899872495684" as="geometry" />
        </mxCell>
        <mxCell id="iwwvHL_2ORkeYpdFA5E3-180" value="Enemies" style="strokeColor=#b46504;fillColor=#fad7ac;fontSize=8;strokeWidth=2;horizontal=0;fontFamily=Helvetica;labelBackgroundColor=none;container=0;rounded=1;" parent="1" vertex="1">
          <mxGeometry x="35.13077849412017" y="454.4701609330863" width="12.104622795296134" height="42.34899872495684" as="geometry" />
        </mxCell>
        <mxCell id="iwwvHL_2ORkeYpdFA5E3-205" value="Locations" style="strokeColor=#b46504;fillColor=#fad7ac;fontSize=8;strokeWidth=2;horizontal=0;fontFamily=Helvetica;labelBackgroundColor=none;container=0;rounded=1;" parent="1" vertex="1">
          <mxGeometry x="35.13077849412017" y="496.8191596580431" width="12.104622795296134" height="42.34899872495684" as="geometry" />
        </mxCell>
        <mxCell id="iwwvHL_2ORkeYpdFA5E3-211" value="Events" style="strokeColor=#b46504;fillColor=#fad7ac;fontSize=8;strokeWidth=2;horizontal=0;fontFamily=Helvetica;labelBackgroundColor=none;container=0;rounded=1;" parent="1" vertex="1">
          <mxGeometry x="35.13077849412017" y="539.1681583829999" width="12.104622795296134" height="42.34899872495684" as="geometry" />
        </mxCell>
        <mxCell id="iwwvHL_2ORkeYpdFA5E3-257" value="Front-end/UI" style="strokeColor=#10739e;fillColor=#b1ddf0;fontSize=10;strokeWidth=2;horizontal=0;fontFamily=Helvetica;fontStyle=0;container=0;rounded=1;" parent="1" vertex="1">
          <mxGeometry x="20" y="581.5165849892719" width="15.130778494120168" height="211.5332486311594" as="geometry" />
        </mxCell>
        <mxCell id="iwwvHL_2ORkeYpdFA5E3-258" value="HUD" style="strokeColor=#10739e;fillColor=#b1ddf0;fontSize=8;strokeWidth=2;horizontal=0;fontFamily=Helvetica;labelBackgroundColor=none;container=0;rounded=1;" parent="1" vertex="1">
          <mxGeometry x="35.13077849412017" y="581.5165849892719" width="12.104622795296134" height="42.34899872495684" as="geometry" />
        </mxCell>
        <mxCell id="iwwvHL_2ORkeYpdFA5E3-259" value="Menus" style="strokeColor=#10739e;fillColor=#b1ddf0;fontSize=8;strokeWidth=2;horizontal=0;fontFamily=Helvetica;labelBackgroundColor=none;container=0;rounded=1;" parent="1" vertex="1">
          <mxGeometry x="35.13077849412017" y="623.8655837142289" width="12.104622795296134" height="42.34899872495684" as="geometry" />
        </mxCell>
        <mxCell id="iwwvHL_2ORkeYpdFA5E3-260" value="CSS" style="strokeColor=#10739e;fillColor=#b1ddf0;fontSize=8;strokeWidth=2;horizontal=0;fontFamily=Helvetica;labelBackgroundColor=none;container=0;rounded=1;" parent="1" vertex="1">
          <mxGeometry x="35.13077849412017" y="666.2145824391856" width="12.104622795296134" height="42.34899872495684" as="geometry" />
        </mxCell>
        <mxCell id="iwwvHL_2ORkeYpdFA5E3-285" value="Passages" style="strokeColor=#10739e;fillColor=#b1ddf0;fontSize=8;strokeWidth=2;horizontal=0;fontFamily=Helvetica;labelBackgroundColor=none;container=0;rounded=1;" parent="1" vertex="1">
          <mxGeometry x="35.13077849412017" y="708.5635811641426" width="12.104622795296134" height="42.34899872495684" as="geometry" />
        </mxCell>
        <mxCell id="iwwvHL_2ORkeYpdFA5E3-291" value="Lane 1.3" style="strokeColor=#10739e;fillColor=#b1ddf0;fontSize=8;strokeWidth=2;horizontal=0;fontFamily=Helvetica;labelBackgroundColor=none;container=0;rounded=1;" parent="1" vertex="1">
          <mxGeometry x="35.13077849412017" y="750.9125798890994" width="12.104622795296134" height="42.34899872495684" as="geometry" />
        </mxCell>
        <mxCell id="iwwvHL_2ORkeYpdFA5E3-297" value="Assets" style="fontSize=10;strokeWidth=2;horizontal=0;fontFamily=Helvetica;fontStyle=0;container=0;rounded=1;fillColor=#d0cee2;strokeColor=#56517e;" parent="1" vertex="1">
          <mxGeometry x="20" y="793.0498336204314" width="15.130778494120168" height="211.5332486311594" as="geometry" />
        </mxCell>
        <mxCell id="iwwvHL_2ORkeYpdFA5E3-298" value="Enemy Art" style="fontSize=8;strokeWidth=2;horizontal=0;fontFamily=Helvetica;labelBackgroundColor=none;container=0;rounded=1;fillColor=#d0cee2;strokeColor=#56517e;" parent="1" vertex="1">
          <mxGeometry x="35.13077849412017" y="793.0498336204314" width="12.104622795296134" height="42.34899872495684" as="geometry" />
        </mxCell>
        <mxCell id="iwwvHL_2ORkeYpdFA5E3-299" value="Maps" style="fontSize=8;strokeWidth=2;horizontal=0;fontFamily=Helvetica;labelBackgroundColor=none;container=0;rounded=1;fillColor=#d0cee2;strokeColor=#56517e;" parent="1" vertex="1">
          <mxGeometry x="35.13077849412017" y="835.3988323453883" width="12.104622795296134" height="42.34899872495684" as="geometry" />
        </mxCell>
        <mxCell id="iwwvHL_2ORkeYpdFA5E3-300" value="Audio" style="fontSize=8;strokeWidth=2;horizontal=0;fontFamily=Helvetica;labelBackgroundColor=none;container=0;rounded=1;fillColor=#d0cee2;strokeColor=#56517e;" parent="1" vertex="1">
          <mxGeometry x="35.13077849412017" y="877.7478310703451" width="12.104622795296134" height="42.34899872495684" as="geometry" />
        </mxCell>
        <mxCell id="iwwvHL_2ORkeYpdFA5E3-325" value="BG Art" style="fontSize=8;strokeWidth=2;horizontal=0;fontFamily=Helvetica;labelBackgroundColor=none;container=0;rounded=1;fillColor=#d0cee2;strokeColor=#56517e;" parent="1" vertex="1">
          <mxGeometry x="35.13077849412017" y="920.096829795302" width="12.104622795296134" height="42.34899872495684" as="geometry" />
        </mxCell>
        <mxCell id="iwwvHL_2ORkeYpdFA5E3-331" value="Lane 1.3" style="fontSize=8;strokeWidth=2;horizontal=0;fontFamily=Helvetica;labelBackgroundColor=none;container=0;rounded=1;fillColor=#d0cee2;strokeColor=#56517e;" parent="1" vertex="1">
          <mxGeometry x="35.13077849412017" y="962.4458285202589" width="12.104622795296134" height="42.34899872495684" as="geometry" />
        </mxCell>
        <mxCell id="iwwvHL_2ORkeYpdFA5E3-344" value="Refinement" style="fontSize=13;strokeWidth=2;fontFamily=Helvetica;labelBackgroundColor=none;container=0;rounded=1;fillColor=#647687;fontColor=#ffffff;strokeColor=#314354;" parent="1" vertex="1">
          <mxGeometry x="634.2067175675188" y="141.08757036840558" width="195.59254743779258" height="16.939599489982736" as="geometry" />
        </mxCell>
        <mxCell id="141" value="Groundwork" style="fontSize=13;strokeWidth=2;fontFamily=Helvetica;labelBackgroundColor=none;container=0;rounded=1;fillColor=#647687;fontColor=#ffffff;strokeColor=#314354;" parent="1" vertex="1">
          <mxGeometry x="47.2354012894163" y="141.08757036840558" width="195.69109004320222" height="16.939599489982736" as="geometry" />
        </mxCell>
        <mxCell id="142" value="Structure &amp; Populate" style="fontSize=13;strokeWidth=2;fontFamily=Helvetica;labelBackgroundColor=none;container=0;rounded=1;fillColor=#647687;fontColor=#ffffff;strokeColor=#314354;" parent="1" vertex="1">
          <mxGeometry x="242.9264913326185" y="141.08757036840558" width="195.69109004320222" height="16.939599489982736" as="geometry" />
        </mxCell>
        <mxCell id="143" value="Expansion" style="fontSize=13;strokeWidth=2;fontFamily=Helvetica;labelBackgroundColor=none;container=0;rounded=1;fillColor=#647687;fontColor=#ffffff;strokeColor=#314354;" parent="1" vertex="1">
          <mxGeometry x="438.61758137582063" y="141.08757036840558" width="195.6914018572875" height="16.939599489982736" as="geometry" />
        </mxCell>
        <mxCell id="iwwvHL_2ORkeYpdFA5E3-417" value="Base Framework" style="rounded=1;fillColor=#d5e8d4;strokeColor=#82b366;strokeWidth=2;fontFamily=Helvetica;container=0;" parent="1" vertex="1">
          <mxGeometry x="60.52103896103896" y="291.94574917853276" width="168.31168831168833" height="28.61227844065724" as="geometry" />
        </mxCell>
        <mxCell id="iwwvHL_2ORkeYpdFA5E3-418" value="Base Framework" style="rounded=1;fillColor=#d5e8d4;strokeColor=#82b366;strokeWidth=2;fontFamily=Helvetica;container=0;" parent="1" vertex="1">
          <mxGeometry x="60.215974025974035" y="334.19192534898923" width="168.31168831168833" height="28.61227844065724" as="geometry" />
        </mxCell>
        <mxCell id="iwwvHL_2ORkeYpdFA5E3-421" value="Starting Classes&#xa;" style="rounded=1;fillColor=#d5e8d4;strokeColor=#82b366;strokeWidth=2;fontFamily=Helvetica;container=0;verticalAlign=top;" parent="1" vertex="1">
          <mxGeometry x="256.41480519480524" y="164.89210746847772" width="168.31168831168833" height="28.61227844065724" as="geometry" />
        </mxCell>
        <mxCell id="iwwvHL_2ORkeYpdFA5E3-424" value="" style="edgeStyle=orthogonalEdgeStyle;rounded=1;orthogonalLoop=1;jettySize=auto;exitX=1;exitY=0.5;exitDx=0;exitDy=0;entryX=0;entryY=0.5;entryDx=0;entryDy=0;fontColor=#FFFFFF;" parent="1" source="90" target="iwwvHL_2ORkeYpdFA5E3-421" edge="1">
          <mxGeometry relative="1" as="geometry" />
        </mxCell>
        <mxCell id="iwwvHL_2ORkeYpdFA5E3-422" value="Base Framework" style="rounded=1;fillColor=#d5e8d4;strokeColor=#82b366;strokeWidth=2;fontFamily=Helvetica;container=0;" parent="1" vertex="1">
          <mxGeometry x="256.41480519480524" y="207.24332137182938" width="168.31168831168833" height="28.61227844065724" as="geometry" />
        </mxCell>
        <mxCell id="iwwvHL_2ORkeYpdFA5E3-423" value="" style="edgeStyle=elbowEdgeStyle;rounded=1;orthogonalLoop=1;jettySize=auto;exitX=1;exitY=0.5;exitDx=0;exitDy=0;entryX=0;entryY=0.5;entryDx=0;entryDy=0;fontColor=#FFFFFF;" parent="1" source="90" target="iwwvHL_2ORkeYpdFA5E3-422" edge="1">
          <mxGeometry relative="1" as="geometry" />
        </mxCell>
        <mxCell id="iwwvHL_2ORkeYpdFA5E3-425" value="Define Craft Skills" style="rounded=1;fillColor=#d5e8d4;strokeColor=#82b366;strokeWidth=2;fontFamily=Helvetica;container=0;" parent="1" vertex="1">
          <mxGeometry x="256.2149350649351" y="291.94574917853276" width="168.31168831168833" height="28.61227844065724" as="geometry" />
        </mxCell>
        <mxCell id="iwwvHL_2ORkeYpdFA5E3-426" value="" style="edgeStyle=orthogonalEdgeStyle;rounded=1;orthogonalLoop=1;jettySize=auto;exitX=1;exitY=0.5;exitDx=0;exitDy=0;entryX=0;entryY=0.5;entryDx=0;entryDy=0;fontColor=#FFFFFF;" parent="1" source="iwwvHL_2ORkeYpdFA5E3-417" target="iwwvHL_2ORkeYpdFA5E3-425" edge="1">
          <mxGeometry relative="1" as="geometry" />
        </mxCell>
        <mxCell id="iwwvHL_2ORkeYpdFA5E3-427" value="Level-up Rewards" style="rounded=1;fillColor=#d5e8d4;strokeColor=#82b366;strokeWidth=2;fontFamily=Helvetica;container=0;" parent="1" vertex="1">
          <mxGeometry x="256.1097402597403" y="249.794106967682" width="168.31168831168833" height="28.61227844065724" as="geometry" />
        </mxCell>
        <mxCell id="iwwvHL_2ORkeYpdFA5E3-429" value="" style="edgeStyle=elbowEdgeStyle;rounded=1;orthogonalLoop=1;jettySize=auto;exitX=1;exitY=0.5;exitDx=0;exitDy=0;entryX=0;entryY=0.5;entryDx=0;entryDy=0;fontColor=#FFFFFF;" parent="1" source="90" target="iwwvHL_2ORkeYpdFA5E3-427" edge="1">
          <mxGeometry relative="1" as="geometry" />
        </mxCell>
        <mxCell id="iwwvHL_2ORkeYpdFA5E3-430" value="Starting Area Quests" style="rounded=1;fillColor=#fad7ac;strokeColor=#b46504;strokeWidth=2;fontFamily=Helvetica;container=0;" parent="1" vertex="1">
          <mxGeometry x="256.1097402597403" y="376.6376732119466" width="363.50064935064944" height="28.61227844065724" as="geometry" />
        </mxCell>
        <mxCell id="iwwvHL_2ORkeYpdFA5E3-431" value="" style="edgeStyle=elbowEdgeStyle;shape=connector;rounded=1;orthogonalLoop=1;jettySize=auto;exitX=1;exitY=0.5;exitDx=0;exitDy=0;entryX=0;entryY=0.5;entryDx=0;entryDy=0;labelBackgroundColor=default;strokeColor=default;align=center;verticalAlign=middle;fontFamily=Helvetica;fontSize=11;fontColor=#FFFFFF;endArrow=classic;" parent="1" source="iwwvHL_2ORkeYpdFA5E3-418" target="iwwvHL_2ORkeYpdFA5E3-430" edge="1">
          <mxGeometry relative="1" as="geometry" />
        </mxCell>
        <mxCell id="iwwvHL_2ORkeYpdFA5E3-432" value="Expand Item Database" style="rounded=1;fillColor=#fad7ac;strokeColor=#b46504;strokeWidth=2;fontFamily=Helvetica;container=0;" parent="1" vertex="1">
          <mxGeometry x="256.1097402597403" y="418.98888711529827" width="363.50064935064944" height="28.61227844065724" as="geometry" />
        </mxCell>
        <mxCell id="iwwvHL_2ORkeYpdFA5E3-433" value="Expand Item Database" style="rounded=1;fillColor=#fad7ac;strokeColor=#b46504;strokeWidth=2;fontFamily=Helvetica;container=0;" parent="1" vertex="1">
          <mxGeometry x="256.41480519480524" y="461.2350632857548" width="363.19558441558445" height="28.61227844065724" as="geometry" />
        </mxCell>
        <mxCell id="iwwvHL_2ORkeYpdFA5E3-435" value="Random Event Options" style="rounded=1;fillColor=#fad7ac;strokeColor=#b46504;strokeWidth=2;fontFamily=Helvetica;container=0;" parent="1" vertex="1">
          <mxGeometry x="256.41480519480524" y="546.0320250520638" width="168.31168831168833" height="28.61227844065724" as="geometry" />
        </mxCell>
        <mxCell id="iwwvHL_2ORkeYpdFA5E3-436" value="Quest Rewards Balancing" style="rounded=1;fillColor=#d5e8d4;strokeColor=#82b366;strokeWidth=2;fontFamily=Helvetica;container=0;" parent="1" vertex="1">
          <mxGeometry x="647.8446753246754" y="334.2864593085949" width="168.31168831168833" height="28.61227844065724" as="geometry" />
        </mxCell>
        <mxCell id="iwwvHL_2ORkeYpdFA5E3-437" value="" style="edgeStyle=elbowEdgeStyle;shape=connector;rounded=1;orthogonalLoop=1;jettySize=auto;exitX=1;exitY=0.5;exitDx=0;exitDy=0;entryX=0;entryY=0.5;entryDx=0;entryDy=0;labelBackgroundColor=default;strokeColor=default;align=center;verticalAlign=middle;fontFamily=Helvetica;fontSize=11;fontColor=#FFFFFF;endArrow=classic;" parent="1" source="iwwvHL_2ORkeYpdFA5E3-430" target="iwwvHL_2ORkeYpdFA5E3-436" edge="1">
          <mxGeometry relative="1" as="geometry" />
        </mxCell>
        <mxCell id="iwwvHL_2ORkeYpdFA5E3-438" value="" style="edgeStyle=elbowEdgeStyle;shape=connector;rounded=1;orthogonalLoop=1;jettySize=auto;exitX=1;exitY=0.5;exitDx=0;exitDy=0;entryX=0;entryY=0.5;entryDx=0;entryDy=0;labelBackgroundColor=default;strokeColor=default;align=center;verticalAlign=middle;fontFamily=Helvetica;fontSize=11;fontColor=#FFFFFF;endArrow=classic;" parent="1" source="iwwvHL_2ORkeYpdFA5E3-432" target="iwwvHL_2ORkeYpdFA5E3-436" edge="1">
          <mxGeometry relative="1" as="geometry" />
        </mxCell>
        <mxCell id="iwwvHL_2ORkeYpdFA5E3-439" value="Resource Gathering" style="rounded=1;fillColor=#d5e8d4;strokeColor=#82b366;strokeWidth=2;fontFamily=Helvetica;container=0;" parent="1" vertex="1">
          <mxGeometry x="452.36116883116887" y="291.94574917853276" width="168.31168831168833" height="28.61227844065724" as="geometry" />
        </mxCell>
        <mxCell id="iwwvHL_2ORkeYpdFA5E3-440" value="" style="edgeStyle=elbowEdgeStyle;shape=connector;rounded=1;orthogonalLoop=1;jettySize=auto;exitX=1;exitY=0.5;exitDx=0;exitDy=0;entryX=0;entryY=0.5;entryDx=0;entryDy=0;labelBackgroundColor=default;strokeColor=default;align=center;verticalAlign=middle;fontFamily=Helvetica;fontSize=11;fontColor=#FFFFFF;endArrow=classic;" parent="1" source="iwwvHL_2ORkeYpdFA5E3-425" target="iwwvHL_2ORkeYpdFA5E3-439" edge="1">
          <mxGeometry relative="1" as="geometry" />
        </mxCell>
        <mxCell id="iwwvHL_2ORkeYpdFA5E3-441" value="Tier 1 Class Skills" style="rounded=1;fillColor=#d5e8d4;strokeColor=#82b366;strokeWidth=2;fontFamily=Helvetica;container=0;" parent="1" vertex="1">
          <mxGeometry x="452.36116883116887" y="207.24332137182938" width="168.31168831168833" height="28.61227844065724" as="geometry" />
        </mxCell>
        <mxCell id="iwwvHL_2ORkeYpdFA5E3-443" value="" style="edgeStyle=elbowEdgeStyle;shape=connector;rounded=1;orthogonalLoop=1;jettySize=auto;exitX=1;exitY=0.5;exitDx=0;exitDy=0;entryX=0;entryY=0.5;entryDx=0;entryDy=0;labelBackgroundColor=default;strokeColor=default;align=center;verticalAlign=middle;fontFamily=Helvetica;fontSize=11;fontColor=#FFFFFF;endArrow=classic;" parent="1" source="iwwvHL_2ORkeYpdFA5E3-421" target="iwwvHL_2ORkeYpdFA5E3-441" edge="1">
          <mxGeometry relative="1" as="geometry" />
        </mxCell>
        <mxCell id="iwwvHL_2ORkeYpdFA5E3-442" value="" style="edgeStyle=elbowEdgeStyle;shape=connector;rounded=1;orthogonalLoop=1;jettySize=auto;exitX=1;exitY=0.5;exitDx=0;exitDy=0;entryX=0;entryY=0.5;entryDx=0;entryDy=0;labelBackgroundColor=default;strokeColor=default;align=center;verticalAlign=middle;fontFamily=Helvetica;fontSize=11;fontColor=#FFFFFF;endArrow=classic;" parent="1" source="iwwvHL_2ORkeYpdFA5E3-422" target="iwwvHL_2ORkeYpdFA5E3-441" edge="1">
          <mxGeometry relative="1" as="geometry" />
        </mxCell>
        <mxCell id="iwwvHL_2ORkeYpdFA5E3-444" value="Enemy Balancing" style="rounded=1;fillColor=#fad7ac;strokeColor=#b46504;strokeWidth=2;fontFamily=Helvetica;container=0;" parent="1" vertex="1">
          <mxGeometry x="647.8446753246754" y="461.2350632857548" width="168.31168831168833" height="28.61227844065724" as="geometry" />
        </mxCell>
        <mxCell id="iwwvHL_2ORkeYpdFA5E3-447" value="" style="edgeStyle=orthogonalEdgeStyle;rounded=0;orthogonalLoop=1;jettySize=auto;exitX=1;exitY=0.5;exitDx=0;exitDy=0;entryX=0;entryY=0.5;entryDx=0;entryDy=0;fontColor=#FFFFFF;" parent="1" source="iwwvHL_2ORkeYpdFA5E3-433" target="iwwvHL_2ORkeYpdFA5E3-444" edge="1">
          <mxGeometry relative="1" as="geometry" />
        </mxCell>
        <mxCell id="iwwvHL_2ORkeYpdFA5E3-445" value="Location Content" style="rounded=1;fillColor=#fad7ac;strokeColor=#b46504;strokeWidth=2;fontFamily=Helvetica;container=0;" parent="1" vertex="1">
          <mxGeometry x="452.30857142857155" y="503.69131492200165" width="168.31168831168833" height="28.61227844065724" as="geometry" />
        </mxCell>
        <mxCell id="iwwvHL_2ORkeYpdFA5E3-446" value="" style="edgeStyle=elbowEdgeStyle;shape=connector;rounded=1;orthogonalLoop=1;jettySize=auto;exitX=1;exitY=0.5;exitDx=0;exitDy=0;labelBackgroundColor=default;strokeColor=default;align=center;verticalAlign=middle;fontFamily=Helvetica;fontSize=11;fontColor=#FFFFFF;endArrow=classic;" parent="1" source="iwwvHL_2ORkeYpdFA5E3-434" target="iwwvHL_2ORkeYpdFA5E3-445" edge="1">
          <mxGeometry relative="1" as="geometry" />
        </mxCell>
        <mxCell id="iwwvHL_2ORkeYpdFA5E3-448" value="Equipment &amp; Item Balance" style="rounded=1;fillColor=#fad7ac;strokeColor=#b46504;strokeWidth=2;fontFamily=Helvetica;container=0;" parent="1" vertex="1">
          <mxGeometry x="647.8446753246754" y="418.9888871152983" width="168.31168831168833" height="28.61227844065724" as="geometry" />
        </mxCell>
        <mxCell id="iwwvHL_2ORkeYpdFA5E3-452" value="" style="edgeStyle=orthogonalEdgeStyle;rounded=1;orthogonalLoop=1;jettySize=auto;exitX=1;exitY=0.5;exitDx=0;exitDy=0;entryX=0;entryY=0.5;entryDx=0;entryDy=0;fontColor=#FFFFFF;" parent="1" source="iwwvHL_2ORkeYpdFA5E3-422" target="iwwvHL_2ORkeYpdFA5E3-451" edge="1">
          <mxGeometry relative="1" as="geometry">
            <Array as="points">
              <mxPoint x="440.77922077922085" y="221.04527947426095" />
              <mxPoint x="440.77922077922085" y="350.2416909353785" />
              <mxPoint x="235.64935064935068" y="350.2416909353785" />
              <mxPoint x="235.64935064935068" y="645.3977203709395" />
            </Array>
          </mxGeometry>
        </mxCell>
        <mxCell id="iwwvHL_2ORkeYpdFA5E3-449" value="" style="edgeStyle=orthogonalEdgeStyle;rounded=0;orthogonalLoop=1;jettySize=auto;exitX=1;exitY=0.5;exitDx=0;exitDy=0;entryX=0;entryY=0.5;entryDx=0;entryDy=0;fontColor=#FFFFFF;" parent="1" source="iwwvHL_2ORkeYpdFA5E3-432" target="iwwvHL_2ORkeYpdFA5E3-448" edge="1">
          <mxGeometry relative="1" as="geometry" />
        </mxCell>
        <mxCell id="iwwvHL_2ORkeYpdFA5E3-450" value="Display Refinement" style="rounded=1;fillColor=#b1ddf0;strokeColor=#10739e;strokeWidth=2;fontFamily=Helvetica;container=0;" parent="1" vertex="1">
          <mxGeometry x="60.21597402597405" y="588.3832389554155" width="168.31168831168833" height="28.61227844065724" as="geometry" />
        </mxCell>
        <mxCell id="iwwvHL_2ORkeYpdFA5E3-451" value="Skill Menu" style="rounded=1;fillColor=#b1ddf0;strokeColor=#10739e;strokeWidth=2;fontFamily=Helvetica;container=0;" parent="1" vertex="1">
          <mxGeometry x="256.41480519480524" y="630.7344528587672" width="168.31168831168833" height="28.61227844065724" as="geometry" />
        </mxCell>
        <mxCell id="iwwvHL_2ORkeYpdFA5E3-453" value="CSS Enhancement" style="rounded=1;fillColor=#b1ddf0;strokeColor=#10739e;strokeWidth=2;fontFamily=Helvetica;container=0;" parent="1" vertex="1">
          <mxGeometry x="647.9498701298703" y="672.9806290292237" width="168.31168831168833" height="28.61227844065724" as="geometry" />
        </mxCell>
        <mxCell id="iwwvHL_2ORkeYpdFA5E3-454" value="Passage QC" style="rounded=1;fillColor=#b1ddf0;strokeColor=#10739e;strokeWidth=2;fontFamily=Helvetica;container=0;" parent="1" vertex="1">
          <mxGeometry x="647.8446753246754" y="715.4368806654705" width="168.31168831168833" height="28.61227844065724" as="geometry" />
        </mxCell>
        <mxCell id="iwwvHL_2ORkeYpdFA5E3-455" value="Audio Integration Research" style="rounded=1;strokeWidth=2;fontFamily=Helvetica;container=0;fillColor=#d0cee2;strokeColor=#56517e;" parent="1" vertex="1">
          <mxGeometry x="60.9207792207792" y="884.8207287322982" width="168.31168831168833" height="28.61227844065724" as="geometry" />
        </mxCell>
        <mxCell id="iwwvHL_2ORkeYpdFA5E3-456" value="Audio Framework" style="rounded=1;strokeWidth=2;fontFamily=Helvetica;container=0;fillColor=#d0cee2;strokeColor=#56517e;" parent="1" vertex="1">
          <mxGeometry x="256.6146753246754" y="884.8207287322983" width="362.9957142857143" height="28.61227844065724" as="geometry" />
        </mxCell>
        <mxCell id="iwwvHL_2ORkeYpdFA5E3-457" value="Artwork Development" style="rounded=1;strokeWidth=2;fontFamily=Helvetica;container=0;fillColor=#d0cee2;strokeColor=#56517e;" parent="1" vertex="1">
          <mxGeometry x="256.6146753246754" y="800.1288046988844" width="362.9957142857143" height="28.61227844065724" as="geometry" />
        </mxCell>
        <mxCell id="iwwvHL_2ORkeYpdFA5E3-458" value="Artwork Development" style="rounded=1;strokeWidth=2;fontFamily=Helvetica;container=0;fillColor=#d0cee2;strokeColor=#56517e;" parent="1" vertex="1">
          <mxGeometry x="256.1097402597403" y="926.9618671698596" width="362.9957142857143" height="28.61227844065724" as="geometry" />
        </mxCell>
        <mxCell id="iwwvHL_2ORkeYpdFA5E3-434" value="Expand In-Game Locations" style="rounded=1;fillColor=#fad7ac;strokeColor=#b46504;strokeWidth=2;fontFamily=Helvetica;container=0;" parent="1" vertex="1">
          <mxGeometry x="60.21597402597405" y="503.6913149220017" width="363.19558441558445" height="28.61227844065724" as="geometry" />
        </mxCell>
        <mxCell id="kd2byvJGPCZEn5zYiDFu-144" value="Phase 2 Development" style="text;html=1;strokeColor=none;fillColor=none;align=center;verticalAlign=middle;whiteSpace=wrap;rounded=0;fontSize=32;fontFamily=MV Boli;fontStyle=0" vertex="1" parent="1">
          <mxGeometry x="250" y="38" width="351" height="59" as="geometry" />
        </mxCell>
      </root>
    </mxGraphModel>
  </diagram>
</mxfile>
